PathFileType  4	(X/Y/Z) C:\Users\antoi\Documents\MyRepositories\mobilecap\ResultsAnalysis
DataRate	CameraRate	NumFrames	NumMarkers	Units	OrigDataRate	OrigDataStartFrame	OrigNumFrames
100.0	100.0	6	51	mm	100.0	35	139
Frame#	Time	r_knee			r_shank_antsup			r_ankle			r_calc			r_5meta			r_toe			L_knee			L_shank_antsup			L_ankle			L_calc			L_5meta			L_toe			r_sh2			r_sh3			r_sh4			L_sh2			L_sh3			r_thigh1			r_thigh2			r_thigh3			r_thigh4			r_thigh5			L_thigh1			L_thigh2			L_thigh3			L_thigh4			r.ASIS			r.PSIS			L.ASIS			L.PSIS			C7			R_Shoulder			L_Shoulder			R_Sternum			L_Sternum			R_humerus			R_elbow_med			R_elbow_lat			R_forearm			R_wrist_radius			R_wrist_ulna			L_humerus			L_elbow_med			L_elbow_lat			L_forearm			L_wrist_radius			L_wrist_ulna			R_HJC			L_HJC			R_HJC_reg			L_HJC_reg			
		X1	Y1	Z1	X2	Y2	Z2	X3	Y3	Z3	X4	Y4	Z4	X5	Y5	Z5	X6	Y6	Z6	X7	Y7	Z7	X8	Y8	Z8	X9	Y9	Z9	X10	Y10	Z10	X11	Y11	Z11	X12	Y12	Z12	X13	Y13	Z13	X14	Y14	Z14	X15	Y15	Z15	X16	Y16	Z16	X17	Y17	Z17	X18	Y18	Z18	X19	Y19	Z19	X20	Y20	Z20	X21	Y21	Z21	X22	Y22	Z22	X23	Y23	Z23	X24	Y24	Z24	X25	Y25	Z25	X26	Y26	Z26	X27	Y27	Z27	X28	Y28	Z28	X29	Y29	Z29	X30	Y30	Z30	X31	Y31	Z31	X32	Y32	Z32	X33	Y33	Z33	X34	Y34	Z34	X35	Y35	Z35	X36	Y36	Z36	X37	Y37	Z37	X38	Y38	Z38	X39	Y39	Z39	X40	Y40	Z40	X41	Y41	Z41	X42	Y42	Z42	X43	Y43	Z43	X44	Y44	Z44	X45	Y45	Z45	X46	Y46	Z46	X47	Y47	Z47	X48	Y48	Z48	X49	Y49	Z49	X50	Y50	Z50	X51	Y51	Z51	

35	0.34000000	185.84147	496.19656	-112.00267	217.57794	398.16865	-125.49793	123.68929	90.16740	-164.66267	66.64035	58.52901	-221.18771	237.64305	44.43969	-115.61169	275.89700	72.65438	-168.85449	351.30472	533.32620	-374.94738	360.31239	436.42591	-359.61669	142.65497	179.91366	-369.61327	55.98571	177.42275	-324.75605	204.74419	73.12549	-399.05448	256.60484	78.72063	-342.55702	204.54776	286.76706	-138.52905	153.10242	400.34130	-85.84047	132.59049	287.32675	-94.56214	299.90281	487.78715	-402.81029	234.72242	385.51403	-414.27217	226.66098	777.72691	-74.06331	239.60140	668.85349	-95.71677	188.75000	634.22948	-64.48933	117.05617	758.90410	-53.16723	134.01507	647.41632	-78.98362	309.93402	784.84328	-391.95522	381.80416	667.03534	-365.20362	225.11634	725.66869	-431.53331	291.02813	614.29730	-397.16161	242.97146	974.83988	-113.86930	35.80224	998.77457	-199.36340	244.12724	973.86490	-366.83698	40.76319	993.94218	-293.92238	60.07580	1457.67047	-235.17190	122.34643	1431.53462	-72.06004	138.91153	1437.15059	-388.28703	189.19918	1393.61510	-210.17732	187.26074	1396.03319	-255.96894	167.29879	1306.45600	-14.43800	110.26158	1095.87075	-55.18832	109.78741	1108.85942	12.14420	170.93075	1056.57535	44.23848	253.58370	905.00850	34.04977	212.27127	899.84122	64.55869	163.16419	1298.96133	-455.77968	91.85335	1102.09435	-405.34893	100.03372	1114.92390	-484.12004	140.17520	1055.84253	-508.23682	161.91173	876.75179	-507.81845	126.06554	890.03659	-541.41996	163.76731	884.01405	-140.15100	168.38859	883.02839	-329.65227	168.43767	900.75677	-149.50986	177.17374	892.24502	-316.02495	
36	0.35000000	189.16719	495.94082	-111.33692	219.90810	397.65442	-124.75922	123.87313	90.31367	-164.78514	66.72721	58.64132	-221.20817	237.68376	44.37809	-115.46519	276.15143	72.51401	-168.75154	366.83813	536.23155	-373.45508	380.80873	440.02821	-358.75400	179.23485	170.44065	-368.64129	92.98607	162.11766	-323.31697	247.92972	68.05459	-398.66352	300.23521	77.14279	-342.50355	206.01391	286.38924	-137.96668	155.31560	400.34402	-85.38493	133.85076	287.50337	-94.31585	317.11311	487.54019	-401.89483	258.58744	381.54494	-413.46685	234.60937	776.92877	-73.29513	245.87812	667.87326	-94.87540	194.27046	634.07936	-63.96405	124.39024	759.81231	-52.77786	139.82746	648.14314	-78.67425	322.91223	787.07867	-391.41318	395.90084	670.11051	-364.03171	238.98210	726.92111	-431.12319	305.88956	616.30215	-396.14948	253.43143	974.62245	-112.65595	46.69742	998.90006	-199.74812	255.91068	974.47677	-365.61011	52.11069	993.87423	-294.05064	72.03400	1457.98373	-234.56626	134.35918	1432.00253	-71.56792	150.25985	1437.20882	-387.88086	200.96027	1393.89513	-209.74303	199.00588	1396.24594	-255.50434	180.05492	1307.34601	-13.78165	124.71223	1096.13886	-53.53508	124.31227	1109.37092	13.74525	186.55527	1058.00049	45.52491	271.82347	907.96188	35.07474	230.89686	902.09223	65.75221	173.12989	1298.94759	-455.73282	100.07575	1102.56560	-405.74812	107.53715	1115.72067	-484.50360	146.85452	1056.33801	-509.37034	166.59734	877.00549	-510.21692	130.59071	890.95094	-543.12968	174.31900	883.88978	-139.77841	180.15361	883.38152	-329.24916	178.90658	901.33353	-148.52502	188.46290	892.46046	-314.97212	
37	0.36000000	192.68233	495.58869	-110.75651	222.40564	397.09218	-124.17998	124.07598	90.47616	-164.95023	66.81313	58.75778	-221.23096	237.71580	44.31164	-115.32438	276.48866	72.40116	-168.64920	381.59769	538.23744	-372.24378	400.55661	443.15274	-357.94402	216.38342	161.26975	-367.65978	130.99909	147.35001	-321.65245	291.06988	63.52127	-398.46313	343.68538	75.86444	-342.74442	207.60960	285.96103	-137.55805	157.78092	400.29782	-84.98492	135.35114	287.64240	-94.10360	333.67685	486.37336	-401.13740	282.33220	376.97405	-412.66537	242.60505	776.03988	-72.63462	252.24636	666.82841	-94.17422	200.00933	633.84698	-63.51161	131.79160	760.52859	-52.34021	145.83626	648.70215	-78.34369	335.62814	788.59978	-390.78015	409.34279	672.21985	-362.91896	252.36478	727.76047	-430.68892	319.85872	617.69568	-395.24298	263.88154	974.12209	-111.49165	57.59611	998.75686	-200.20960	267.77486	974.74676	-364.51187	63.51836	993.58972	-294.23834	84.00980	1458.02390	-233.99506	146.43415	1432.12634	-71.06842	161.71096	1436.91671	-387.48443	212.78068	1393.82408	-209.29466	210.81753	1396.11263	-255.03938	192.77546	1307.83905	-13.19087	139.13174	1096.05795	-51.92233	138.81278	1109.52631	15.28839	202.14217	1059.09223	46.74886	289.96333	910.62214	35.97824	249.44125	904.04682	66.83564	183.05943	1298.59448	-455.68748	108.29626	1102.69502	-406.15728	114.97156	1116.23347	-484.90480	153.59408	1056.55326	-510.46128	171.60683	877.05821	-512.51810	135.38300	891.58359	-544.74708	184.86188	883.49163	-139.47566	191.93132	883.43971	-328.90657	189.35998	901.51125	-147.69045	199.84585	892.36383	-314.12223	
38	0.37000000	196.41295	495.14346	-110.28833	225.09254	396.49032	-123.78628	124.29862	90.65607	-165.15764	66.89356	58.87106	-221.26071	237.73444	44.24579	-115.19461	276.85956	72.28787	-168.54881	395.57702	539.31591	-371.31044	419.52529	445.78957	-357.19019	253.94679	152.64638	-366.66968	169.83291	133.41465	-319.83903	334.05769	59.66955	-398.36571	386.76384	75.01282	-343.14208	209.34302	285.49315	-137.32835	160.50598	400.20989	-84.65544	137.10345	287.75166	-93.93117	349.67109	484.33658	-400.52715	305.95582	371.90676	-411.86548	250.68890	775.06285	-72.08076	258.74262	665.72307	-93.62232	206.00414	633.52648	-63.13661	139.33878	761.05997	-51.84769	152.05469	649.11336	-77.98255	348.09363	789.37369	-390.03768	422.16363	673.31595	-361.88589	265.27314	728.15710	-430.25108	332.99491	618.41532	-394.50188	274.31817	973.37853	-110.36072	68.51868	998.37955	-200.72981	279.72188	974.69716	-363.52827	75.00187	993.12537	-294.48128	96.01067	1457.79879	-233.48226	158.55807	1431.91675	-70.57915	173.29051	1436.28983	-387.10462	224.66536	1393.40402	-208.84058	222.69871	1395.63767	-254.58620	205.45568	1307.95732	-12.68821	153.50701	1095.64142	-50.36374	153.31310	1109.32067	16.75891	217.69768	1059.85753	47.89704	308.00041	912.98927	36.75633	267.87948	905.71195	67.80723	192.98964	1297.91999	-455.64539	116.52753	1102.50345	-406.57020	122.38134	1116.47119	-485.30891	160.41981	1056.49568	-511.50000	176.98176	876.91844	-514.69965	140.44043	891.92972	-546.26721	195.39933	882.85830	-139.22405	203.72738	883.22997	-328.60487	199.80813	901.31484	-146.98824	211.32457	891.98521	-313.45892	
39	0.38000000	200.35722	494.61578	-109.94896	227.96178	395.85400	-123.56708	124.54322	90.85066	-165.40252	66.96787	58.97692	-221.30323	237.73972	44.18728	-115.07812	277.21970	72.15553	-168.45107	408.80397	539.47720	-370.64599	437.71393	447.95923	-356.53198	291.72967	144.79370	-365.67748	209.23949	120.55412	-317.96766	376.78765	56.64808	-398.25190	429.30816	74.78252	-343.52345	211.20569	284.99655	-137.26157	163.45618	400.08937	-84.40458	139.07132	287.84157	-93.80278	365.17337	481.52756	-400.06034	329.42613	366.48783	-411.08823	258.89284	773.99974	-71.62208	265.39733	664.55793	-93.22019	212.26850	633.11469	-62.83958	147.11201	761.42234	-51.29953	158.49309	649.39871	-77.58468	360.31762	789.37161	-389.17904	434.40617	673.37712	-360.94419	277.74694	728.08125	-429.84779	345.39403	618.41324	-393.98597	284.73762	972.43420	-109.24370	79.48931	997.78612	-201.29977	291.75562	974.35258	-362.62807	86.57839	992.49111	-294.78360	108.05389	1457.31305	-233.04426	170.71066	1431.38712	-70.11536	185.01461	1435.34827	-386.74993	236.61427	1392.64411	-208.39042	234.65188	1394.83013	-254.15664	218.09186	1307.72855	-12.29634	167.83049	1094.90663	-48.87751	167.83890	1108.75489	18.14136	233.22027	1060.30862	48.95525	325.92611	915.06712	37.40578	286.18562	907.09893	68.66538	202.96864	1296.94598	-455.60801	124.78780	1102.01731	-406.98596	129.82843	1116.44313	-485.70341	167.36264	1056.17864	-512.47947	182.74436	876.59216	-516.74329	145.76973	891.99522	-547.68548	205.94265	882.02350	-139.00052	215.56543	882.77120	-328.31967	210.26917	900.78233	-146.38362	222.90372	891.35038	-312.93981	
40	0.39000000	204.49028	494.02433	-109.74152	230.97894	395.18480	-123.47962	124.81278	91.05495	-165.67610	67.03768	59.07553	-221.36365	237.73702	44.14228	-114.97372	277.54120	72.00022	-168.35765	421.34969	538.76868	-370.23895	455.13996	449.70277	-356.02949	329.51536	137.89259	-364.69356	248.93316	108.94483	-316.12194	419.14574	54.60096	-397.98996	471.17330	75.41150	-343.71010	213.17401	284.47959	-137.30799	166.56944	399.94674	-84.23203	141.18591	287.92433	-93.71970	380.25907	478.07900	-399.74520	352.67592	360.88803	-410.36778	267.24041	772.84911	-71.24117	272.23453	663.33103	-92.95766	218.79180	632.61045	-62.61510	155.17053	761.63410	-50.69634	165.15600	649.57867	-77.14919	372.30984	788.57948	-388.20834	446.12196	672.41765	-360.09167	289.85583	727.51061	-429.52859	357.17817	617.67083	-393.74357	295.13778	971.32916	-108.12387	90.53539	996.97494	-201.92022	303.87817	973.73810	-361.76748	98.26634	991.66806	-295.15520	120.15494	1456.57125	-232.69175	182.86783	1430.55400	-69.69116	196.89161	1434.11680	-386.42887	248.61970	1391.55939	-207.95384	246.67463	1393.70250	-253.76049	230.68340	1307.18344	-12.03148	182.09996	1093.87652	-47.48202	182.41347	1107.84308	19.42092	248.70099	1060.46536	49.91021	343.72391	916.86122	37.92373	304.33747	908.22243	69.40835	213.04778	1295.69711	-455.57864	133.10662	1101.26895	-407.40668	137.38849	1116.15822	-486.07598	174.45579	1055.62140	-513.39693	188.88748	876.08042	-518.63506	151.38511	891.79609	-548.99817	216.51229	881.01156	-138.78168	227.48374	882.07222	-328.02580	220.76694	899.96181	-145.83238	234.58945	890.47897	-312.50264	
